<?xml version="1.0" standalone="no"?>
<!DOCTYPE svg PUBLIC "-//W3C//DTD SVG 20010904//EN"
 "http://www.w3.org/TR/2001/REC-SVG-20010904/DTD/svg10.dtd">
<svg version="1.0" xmlns="http://www.w3.org/2000/svg"
 width="1280.000000pt" height="1280.000000pt" viewBox="0 0 1280.000000 1280.000000"
 preserveAspectRatio="xMidYMid meet">
<metadata>
Created by potrace 1.15, written by Peter Selinger 2001-2017
</metadata>
<g transform="translate(0.000000,1280.000000) scale(0.100000,-0.100000)"
fill="#ff9800" stroke="none">
<path d="M6336 12634 c-87 -230 -175 -404 -240 -470 -46 -47 -57 -54 -92 -54
-58 0 -104 37 -161 130 l-22 34 -9 -24 c-41 -107 -84 -165 -132 -175 -94 -21
-224 115 -437 457 -48 76 -88 137 -90 135 -1 -2 -16 -78 -33 -168 -63 -353
-109 -493 -180 -553 -57 -47 -113 -33 -199 49 l-58 56 -7 -52 c-10 -71 -33
-125 -68 -154 -85 -71 -217 10 -509 313 l-146 151 1 -277 c1 -302 -10 -394
-57 -464 -48 -70 -103 -73 -208 -9 l-64 39 -6 -77 c-8 -92 -19 -122 -55 -150
-76 -60 -252 17 -582 253 -72 52 -132 90 -132 84 0 -6 16 -81 35 -167 67 -303
84 -470 56 -553 -27 -81 -107 -100 -222 -53 l-61 25 6 -28 c17 -81 18 -149 2
-184 -21 -45 -51 -58 -129 -58 -101 0 -250 50 -536 179 -63 28 -115 50 -117
48 -2 -2 21 -59 51 -126 125 -279 175 -428 176 -527 2 -112 -43 -151 -160
-141 -36 4 -76 9 -88 13 l-22 6 24 -61 c31 -76 33 -148 5 -184 -57 -72 -223
-68 -593 15 -98 22 -181 37 -184 35 -2 -3 40 -68 94 -144 320 -450 342 -603
92 -622 l-77 -6 39 -64 c64 -105 61 -160 -9 -208 -70 -47 -162 -58 -464 -57
l-276 1 150 -146 c242 -233 338 -361 338 -447 0 -65 -70 -115 -179 -130 l-52
-7 56 -58 c82 -86 96 -142 49 -199 -55 -65 -218 -121 -499 -170 -168 -30 -225
-41 -225 -44 0 -2 60 -40 132 -85 343 -212 484 -346 463 -441 -10 -48 -68 -91
-174 -132 -24 -8 -22 -10 37 -49 33 -22 70 -55 81 -73 59 -95 -3 -175 -221
-280 -116 -56 -276 -122 -400 -167 -21 -7 -38 -15 -38 -19 0 -3 71 -32 158
-65 233 -88 418 -183 476 -245 38 -41 46 -56 46 -87 0 -57 -38 -104 -130 -160
l-34 -22 24 -9 c106 -41 165 -84 175 -131 20 -94 -127 -234 -470 -446 -69 -43
-124 -80 -122 -81 2 -2 91 -19 198 -39 329 -60 464 -105 523 -175 47 -57 33
-113 -51 -201 l-56 -59 30 0 c99 0 203 -67 203 -131 0 -88 -95 -215 -328 -440
l-162 -156 278 1 c302 1 394 -10 464 -57 70 -48 73 -103 9 -208 l-39 -64 77
-6 c92 -8 122 -19 150 -55 60 -76 -4 -227 -236 -557 -58 -82 -102 -151 -100
-154 3 -2 74 11 159 31 285 66 476 85 560 57 80 -27 101 -112 53 -221 -13 -30
-22 -56 -20 -58 1 -1 22 2 46 7 100 23 185 5 208 -45 17 -38 13 -141 -8 -219
-23 -80 -85 -239 -160 -404 -28 -63 -50 -116 -48 -118 2 -2 44 15 93 38 138
64 351 148 429 170 78 21 181 25 219 8 40 -19 60 -72 52 -143 -3 -34 -9 -73
-12 -88 l-6 -28 61 25 c76 31 148 33 184 5 73 -58 68 -223 -19 -614 -19 -87
-33 -160 -30 -163 2 -3 67 40 143 94 324 230 491 301 567 242 36 -28 47 -58
55 -150 l6 -77 64 39 c105 64 160 61 208 -9 47 -70 58 -162 57 -464 l-1 -277
158 163 c233 240 348 326 438 326 64 0 131 -104 131 -203 l0 -30 59 56 c88 84
144 98 201 51 68 -58 117 -204 175 -523 20 -107 37 -196 39 -198 1 -2 41 59
89 135 114 184 194 295 264 366 141 144 227 120 305 -84 l9 -24 22 34 c57 93
103 130 161 130 35 0 46 -7 92 -54 65 -66 153 -240 240 -470 32 -86 61 -156
64 -156 3 0 32 71 65 158 88 231 175 402 239 468 46 47 57 54 92 54 58 0 104
-37 161 -130 l22 -34 9 24 c41 107 84 165 132 175 94 21 230 -123 445 -470 43
-69 80 -124 81 -122 2 2 19 91 39 198 59 325 106 465 175 523 57 47 113 33
201 -51 l59 -56 0 30 c0 55 31 136 65 170 85 85 215 8 516 -305 l145 -151 0
277 c-1 302 10 394 57 464 48 70 103 73 208 9 l64 -39 6 77 c8 92 19 122 55
150 76 59 243 -12 567 -242 76 -54 141 -97 143 -94 3 3 -13 85 -34 183 -65
291 -81 453 -53 536 27 81 107 100 222 53 l61 -25 -6 28 c-3 15 -9 54 -12 88
-8 71 12 124 52 143 38 17 141 13 219 -8 77 -22 290 -106 429 -170 49 -23 91
-40 93 -38 2 2 -21 59 -51 126 -157 346 -204 519 -167 609 23 55 111 77 204
51 21 -6 42 -9 47 -7 5 2 -2 28 -15 58 -31 71 -33 147 -5 183 57 73 247 67
618 -19 85 -20 156 -34 159 -31 2 3 -42 72 -100 154 -231 327 -296 481 -236
557 28 36 58 47 150 55 l77 6 -39 64 c-64 105 -61 160 9 208 70 47 162 58 464
57 l278 -1 -152 146 c-179 172 -263 269 -306 350 -43 79 -43 122 1 166 34 34
115 65 170 65 l30 0 -56 59 c-84 88 -98 144 -51 201 59 70 194 115 523 175
107 20 196 37 198 39 2 1 -59 41 -135 89 -183 114 -294 194 -366 264 -144 141
-121 227 84 305 l24 9 -34 22 c-92 56 -130 103 -130 160 0 31 8 46 47 88 38
40 75 64 197 124 83 40 215 98 293 127 79 29 143 55 143 58 0 4 -17 12 -37 19
-125 45 -285 111 -401 167 -165 80 -242 146 -242 208 0 54 31 99 102 145 59
39 61 41 37 49 -106 41 -164 84 -174 132 -21 94 105 215 444 429 79 50 146 93
148 95 5 5 -33 12 -222 46 -422 74 -565 154 -515 285 6 15 36 53 67 86 l56 59
-30 0 c-55 0 -136 31 -170 65 -85 85 -10 212 305 516 l150 146 -276 -1 c-302
-1 -394 10 -464 57 -70 48 -73 103 -9 208 l39 64 -77 6 c-92 8 -122 19 -150
55 -59 76 12 243 242 567 54 76 96 141 94 144 -3 2 -86 -13 -184 -35 -288 -65
-452 -81 -535 -53 -81 27 -100 107 -53 222 l25 61 -28 -6 c-260 -61 -308 61
-166 421 24 62 69 167 99 234 30 67 53 124 51 126 -2 2 -54 -20 -117 -48 -286
-129 -435 -179 -536 -179 -78 0 -108 13 -129 58 -16 35 -15 103 2 184 l6 28
-61 -25 c-76 -31 -148 -33 -184 -5 -72 57 -68 222 14 590 21 96 39 180 39 187
0 6 -60 -31 -132 -83 -330 -236 -506 -313 -582 -253 -36 28 -47 58 -55 150
l-6 77 -64 -39 c-105 -64 -160 -61 -208 9 -47 70 -58 162 -57 464 l1 277 -146
-151 c-234 -243 -360 -338 -449 -338 -65 0 -132 104 -132 203 l0 30 -59 -56
c-89 -85 -144 -98 -202 -50 -67 57 -115 200 -174 522 -20 107 -37 196 -39 198
-1 2 -41 -59 -89 -135 -114 -183 -194 -294 -264 -366 -141 -144 -227 -121
-305 84 l-9 24 -22 -34 c-57 -93 -103 -130 -161 -130 -35 0 -46 7 -92 54 -65
66 -153 240 -240 470 -32 86 -61 156 -64 156 -3 0 -32 -70 -64 -156z m498
-859 c1029 -84 1981 -445 2813 -1069 203 -152 355 -286 569 -500 430 -431 739
-859 1008 -1396 379 -759 566 -1552 566 -2410 0 -858 -187 -1652 -567 -2410
-268 -537 -580 -968 -1012 -1401 -442 -441 -873 -750 -1426 -1024 -756 -373
-1535 -555 -2385 -555 -858 0 -1651 187 -2410 566 -1578 790 -2674 2304 -2925
4038 -65 446 -74 962 -24 1391 109 959 470 1867 1044 2630 928 1234 2331 2011
3863 2139 221 19 661 19 886 1z"/>
<path d="M5935 11615 c-857 -79 -1670 -358 -2378 -818 -1191 -774 -2019 -1994
-2292 -3379 -69 -351 -95 -625 -95 -1018 0 -384 25 -662 90 -997 246 -1268
957 -2405 1990 -3182 494 -372 1030 -647 1610 -825 365 -112 766 -187 1150
-216 174 -13 606 -13 780 0 1828 136 3446 1216 4280 2855 286 564 458 1142
537 1810 14 119 17 232 18 545 0 404 -5 489 -46 775 -188 1296 -871 2488
-1899 3314 -819 658 -1779 1044 -2827 1136 -206 18 -718 18 -918 0z m710 -335
c790 -44 1511 -254 2177 -636 1153 -660 1988 -1757 2313 -3039 152 -599 189
-1222 109 -1845 -212 -1663 -1305 -3129 -2844 -3818 -827 -370 -1731 -503
-2640 -386 -1966 251 -3606 1709 -4095 3639 -104 410 -148 770 -148 1205 0
267 11 439 44 677 222 1600 1234 2999 2684 3708 758 371 1580 540 2400 495z"/>
<path d="M6220 10978 l-165 -50 -192 23 -191 23 -172 -82 -171 -82 -177 0
-178 0 -156 -108 -156 -107 -183 -34 -183 -33 -134 -128 -134 -129 -106 -37
c-59 -21 -138 -49 -176 -63 l-70 -26 -111 -145 -111 -145 -164 -90 -165 -90
-90 -165 -90 -164 -145 -111 -145 -111 -26 -70 c-14 -38 -42 -117 -63 -175
l-37 -106 -128 -135 -128 -135 -23 -124 c-45 -253 -37 -230 -153 -398 l-107
-155 0 -178 0 -177 -81 -168 c-91 -190 -87 -154 -54 -409 l19 -141 -53 -176
-52 -177 52 -177 53 -176 -19 -141 c-33 -255 -37 -219 54 -409 l81 -168 0
-177 0 -177 108 -157 c99 -143 109 -163 121 -225 6 -37 21 -119 33 -182 l21
-115 128 -134 127 -134 42 -116 c91 -259 66 -220 226 -343 79 -61 147 -115
151 -121 4 -7 46 -82 93 -167 l85 -155 156 -86 c85 -47 160 -89 167 -93 6 -4
60 -72 120 -150 l109 -143 177 -63 176 -63 133 -128 133 -127 114 -21 c63 -12
146 -27 183 -33 62 -12 82 -22 225 -121 l157 -108 178 0 177 0 171 -82 171
-82 141 18 c246 32 224 34 415 -24 l172 -51 172 51 c191 58 169 56 413 25
l140 -18 173 81 173 82 177 0 177 0 157 108 c143 99 163 109 225 121 37 6 120
21 183 33 l114 21 133 127 133 128 176 63 177 63 109 143 c60 78 114 146 120
150 7 4 82 46 167 93 l156 86 85 155 c47 85 89 160 93 167 4 6 72 61 151 121
l143 110 42 118 c23 65 51 144 63 175 17 48 42 80 148 191 l127 133 21 115
c12 63 27 145 33 182 12 62 22 82 121 225 l108 157 0 177 0 177 81 168 c91
190 87 154 54 409 l-19 141 53 176 52 177 -52 177 -53 176 19 141 c33 255 37
219 -54 409 l-81 168 0 177 0 178 -107 155 c-116 168 -108 145 -153 398 l-23
124 -128 135 -128 135 -37 106 c-21 58 -49 137 -63 175 l-26 70 -145 111 -145
111 -90 164 -90 165 -165 90 -164 90 -111 145 -111 145 -70 26 c-38 14 -117
42 -176 63 l-106 37 -134 128 -133 128 -183 34 -183 33 -157 108 -156 108
-178 0 -177 0 -171 82 -172 82 -191 -23 -192 -23 -169 51 c-93 28 -174 51
-180 50 -6 0 -85 -23 -176 -51z"/>
</g>
</svg>
